<mxfile host="app.diagrams.net" modified="2020-12-09T10:17:21.386Z" agent="5.0 (Windows NT 10.0; WOW64) AppleWebKit/537.36 (KHTML, like Gecko) Chrome/86.0.4240.198 Safari/537.36" etag="YjocFfm3RHhT9XZjDt7t" version="13.10.4" type="github">
  <diagram id="baHdJpl_TrghPonDuxX8" name="Page-1">
    <mxGraphModel dx="1422" dy="802" grid="1" gridSize="10" guides="1" tooltips="1" connect="1" arrows="1" fold="1" page="1" pageScale="1" pageWidth="827" pageHeight="1169" math="0" shadow="0">
      <root>
        <mxCell id="0" />
        <mxCell id="1" parent="0" />
        <mxCell id="9VjW3sQibK8sPB47qNOT-5" value="code" style="edgeStyle=orthogonalEdgeStyle;rounded=0;orthogonalLoop=1;jettySize=auto;html=1;" edge="1" parent="1" source="9VjW3sQibK8sPB47qNOT-1" target="9VjW3sQibK8sPB47qNOT-2">
          <mxGeometry relative="1" as="geometry" />
        </mxCell>
        <mxCell id="9VjW3sQibK8sPB47qNOT-8" value="card_code" style="edgeStyle=orthogonalEdgeStyle;rounded=0;orthogonalLoop=1;jettySize=auto;html=1;" edge="1" parent="1" source="9VjW3sQibK8sPB47qNOT-1" target="9VjW3sQibK8sPB47qNOT-4">
          <mxGeometry relative="1" as="geometry" />
        </mxCell>
        <mxCell id="9VjW3sQibK8sPB47qNOT-1" value="partner" style="rounded=1;whiteSpace=wrap;html=1;" vertex="1" parent="1">
          <mxGeometry x="90" y="220" width="120" height="60" as="geometry" />
        </mxCell>
        <mxCell id="9VjW3sQibK8sPB47qNOT-6" value="" style="edgeStyle=orthogonalEdgeStyle;rounded=0;orthogonalLoop=1;jettySize=auto;html=1;" edge="1" parent="1" source="9VjW3sQibK8sPB47qNOT-2" target="9VjW3sQibK8sPB47qNOT-3">
          <mxGeometry relative="1" as="geometry" />
        </mxCell>
        <mxCell id="9VjW3sQibK8sPB47qNOT-2" value="batch_info" style="rounded=1;whiteSpace=wrap;html=1;" vertex="1" parent="1">
          <mxGeometry x="280" y="220" width="120" height="60" as="geometry" />
        </mxCell>
        <mxCell id="9VjW3sQibK8sPB47qNOT-3" value="batch_send_log" style="rounded=1;whiteSpace=wrap;html=1;" vertex="1" parent="1">
          <mxGeometry x="470" y="220" width="120" height="60" as="geometry" />
        </mxCell>
        <mxCell id="9VjW3sQibK8sPB47qNOT-4" value="order" style="rounded=1;whiteSpace=wrap;html=1;" vertex="1" parent="1">
          <mxGeometry x="90" y="330" width="120" height="60" as="geometry" />
        </mxCell>
      </root>
    </mxGraphModel>
  </diagram>
</mxfile>
